HIERARCHY
ROOT Hips
{
  OFFSET 0 0 0
  CHANNELS 6 Xposition Yposition Zposition Zrotation Yrotation Xrotation
  JOINT LeftThigh
  {
    OFFSET 8.409438 0 -5.917753
    CHANNELS 3 Zrotation Yrotation Xrotation
    JOINT LeftLeg
    {
      OFFSET 0 0 -42.358652
      CHANNELS 3 Zrotation Yrotation Xrotation
      JOINT LeftFoot
      {
        OFFSET 0 0 -39.357303
        CHANNELS 3 Zrotation Yrotation Xrotation
      }
    }
  }
  JOINT RightThigh
  {
    OFFSET -8.409438 0 -5.917753
    CHANNELS 3 Zrotation Yrotation Xrotation
    JOINT RightLeg
    {
      OFFSET 0 0 -42.358652
      CHANNELS 3 Zrotation Yrotation Xrotation
      JOINT RightFoot
      {
        OFFSET 0 0 -39.357303
        CHANNELS 3 Zrotation Yrotation Xrotation
      }
    }
  }
  JOINT SpineLow
  {
    OFFSET 0 0 4.719101
    CHANNELS 3 Zrotation Yrotation Xrotation
    JOINT SpineMid
    {
      OFFSET 0 0 12.899191
      CHANNELS 3 Zrotation Yrotation Xrotation
      JOINT Chest
      {
        OFFSET 0 0 12.899191
        CHANNELS 3 Zrotation Yrotation Xrotation
        JOINT LeftShoulder
        {
          OFFSET 7.550562 1.41573 9.438202
          CHANNELS 3 Zrotation Yrotation Xrotation
          JOINT LeftArm
          {
            OFFSET 9.155056 0 4.247191
            CHANNELS 3 Zrotation Yrotation Xrotation
            JOINT LeftForearm
            {
              OFFSET 0 0 25.771955
              CHANNELS 3 Zrotation Yrotation Xrotation
              JOINT LeftHand
              {
                OFFSET 0 0 25.197169
                CHANNELS 3 Zrotation Yrotation Xrotation
              }
            }
          }
        }
        JOINT RightShoulder
        {
          OFFSET -7.550562 1.41573 9.438202
          CHANNELS 3 Zrotation Yrotation Xrotation
          JOINT RightArm
          {
            OFFSET -9.155056 0 4.247191
            CHANNELS 3 Zrotation Yrotation Xrotation
            JOINT RightForearm
            {
              OFFSET 0 0 -25.771955
              CHANNELS 3 Zrotation Yrotation Xrotation
              JOINT RightHand
              {
                OFFSET 0 0 -25.197169
                CHANNELS 3 Zrotation Yrotation Xrotation
              }
            }
          }
        }
        JOINT Neck
        {
          OFFSET 0 0 15.101124
          CHANNELS 3 Zrotation Yrotation Xrotation
          JOINT Head
          {
            OFFSET 0 0 11.325843
            CHANNELS 3 Zrotation Yrotation Xrotation
            End Site
            {
              OFFSET 0 0 14.157303
            }
          }
        }
      }
    }
  }
}
MOTION
Frames: 11
Frame Time: 0.0
0.0  89.887642  0.0  -0.049762  -2.169735  -93.833147  4.704346  -11.056422  2.871131  1.984816  -0.366213  9.619709  -0.248678  -0.228094  0.488862  -21.382871  12.123201  -7.826385  -7.56429  6.60396  18.759161  8.349238  3.384752  0.070862  -2.124652  -1.466529  0.737402  -5.858074  -3.939784  2.145068  -5.858074  -3.939785  2.145068  -15.933385  -24.964877  0.4436  -11.028608  48.160539  25.976993  1.582508  -22.472457  64.452731  98.86558  13.2305  23.145942  -14.015794  3.418558  8.741082  52.514359  6.017215  65.285441  -1.894379  -2.661086  -91.443953  71.837037  -8.295262  21.630135  -8.056623  -5.693349  -31.907016  -6.356628  -3.862375  -23.99043  
0.0  89.887642  0.0  -0.481363  -3.364332  -93.584324  6.610664  -11.316833  2.537233  0.242435  -0.495049  9.706887  0.268626  0.004769  0.393923  -19.862702  11.682128  -7.929258  -7.095568  6.331986  18.899831  8.225891  3.26736  0.101961  -1.774717  -1.482895  0.680154  -4.89784  -4.0005  1.969091  -4.897839  -4.0005  1.969091  -13.480551  -28.414109  -0.265754  -10.520465  52.726033  29.441798  -0.030455  -25.54582  61.793289  99.095989  12.874013  22.268124  -14.758466  2.769716  9.135283  50.579096  8.182406  64.945063  -0.755035  -3.482068  -92.644041  69.973403  -5.782234  17.317455  -8.717906  -6.143777  -31.695191  -6.874286  -4.169763  -23.841885  
0.0  89.887642  0.0  -0.915135  -3.697982  -93.293912  8.296985  -11.938694  2.243903  -1.701443  -0.258315  9.434104  0.759426  0.255458  0.37947  -17.715094  11.127174  -7.242769  -8.648187  6.582326  18.366876  8.198862  3.134515  0.028067  -1.523973  -1.47231  0.582872  -4.205574  -3.985532  1.687227  -4.205574  -3.985531  1.687227  -13.018209  -27.900859  2.859235  -15.33852  52.00638  25.408839  -2.10334  -26.94137  61.134722  99.558884  13.834224  20.476443  -15.406479  1.58166  9.969181  48.409047  10.203562  63.911961  2.507984  -7.260684  -94.550212  70.461798  -3.484844  14.533402  -9.464407  -6.355096  -31.212636  -7.440252  -4.297244  -23.49049  
0.0  89.887642  0.0  -1.160888  -3.970324  -92.71969  10.019091  -12.531535  1.760068  -2.902334  0.156929  9.13459  0.761178  0.365866  0.29265  -17.149716  10.821924  -7.256084  -9.382933  6.685887  17.791015  8.174973  3.001452  -0.021733  -1.257526  -1.563549  0.435508  -3.469793  -4.249637  1.273046  -3.469793  -4.249637  1.273045  -12.150655  -23.155611  4.305497  -21.367603  45.92434  22.041311  -3.958859  -26.1616  60.806091  99.892946  15.193455  19.286378  -16.735895  1.105978  9.835994  47.757372  10.392332  62.882601  5.689206  -10.912483  -96.069249  73.076839  -2.285032  14.747763  -10.054403  -5.73704  -30.743994  -7.84792  -3.809302  -23.140477  
0.0  89.887642  0.0  -1.188898  -3.280991  -92.693734  11.050009  -12.529062  2.113213  -4.163579  0.108135  8.49394  0.420565  0.388814  0.178353  -17.529121  10.991861  -6.675094  -10.529083  6.770626  16.984813  8.207488  2.868022  -0.089504  -1.196129  -1.573813  0.264044  -3.290915  -4.287512  0.800487  -3.290915  -4.287512  0.800487  -12.614259  -19.618219  1.690166  -25.077981  43.821592  22.816156  -4.142899  -25.46669  60.711413  100.573086  16.861564  19.014242  -17.583527  0.462052  9.800723  47.889677  10.200088  62.188781  6.851052  -11.800828  -96.799254  75.06618  -2.628235  14.565072  -10.431572  -4.897256  -29.787596  -8.081225  -3.174096  -22.418387  
0.0  89.887642  0.0  -1.03621  -1.293144  -93.074693  9.538428  -12.49747  2.457682  -4.522448  0.203856  8.492631  0.230331  0.388913  0.115936  -19.582634  11.483503  -5.859769  -11.403059  6.869796  16.148404  8.241664  2.742196  -0.188824  -1.431368  -1.500954  0.06738  -3.921316  -4.097056  0.273332  -3.921316  -4.097056  0.273333  -14.608908  -17.245003  2.624486  -30.804764  43.436838  19.53006  -3.785249  -25.85971  60.60658  101.560928  18.422649  19.545945  -17.704974  -0.400975  10.290407  48.721394  10.600608  61.747493  6.158561  -10.399761  -96.721417  76.309266  -4.10347  13.553247  -10.588509  -4.113526  -28.428315  -8.15078  -2.599723  -21.390939  
0.0  89.887642  0.0  -0.995674  0.833705  -93.799142  7.47565  -12.3408  3.196679  -4.986173  0.035842  8.439353  0.332432  0.383335  0.081822  -21.863951  11.957467  -4.782664  -12.225918  6.975993  15.325378  8.194849  2.623104  -0.269202  -1.794612  -1.42508  -0.033291  -4.908669  -3.895316  0.014887  -4.908669  -3.895316  0.014886  -15.904371  -15.374059  4.202724  -35.661368  42.762149  16.281075  -4.107618  -25.928561  60.458201  102.537967  20.146363  19.880411  -17.616981  -1.134165  10.627375  50.128225  10.724891  61.257654  4.474135  -8.051003  -96.111064  77.817917  -5.846208  12.521778  -10.601783  -3.581902  -27.193263  -8.127597  -2.220235  -20.457733  
0.0  89.887642  0.0  -1.067735  2.186706  -94.292698  5.978231  -12.194323  3.80384  -5.286016  -0.199601  8.299475  0.507703  0.31539  0.067889  -23.318033  12.173505  -3.820455  -12.711366  7.072829  14.502824  8.17048  2.554038  -0.314203  -2.054633  -1.363368  -0.098199  -5.616085  -3.731876  -0.152472  -5.616085  -3.731876  -0.152472  -17.123398  -13.816724  4.660592  -37.402722  42.074758  16.00858  -5.338281  -25.832931  59.476802  103.471431  21.550416  20.284843  -17.209887  -1.895821  10.917901  51.156859  10.737711  60.696012  2.939485  -6.220653  -95.630179  78.661782  -6.902277  11.54716  -10.767692  -3.284307  -26.284656  -8.233183  -2.004809  -19.773238  
0.0  89.887642  0.0  -1.066088  2.974104  -94.71285  4.763839  -11.960865  4.413446  -5.217305  -0.463541  8.135197  0.597326  0.252224  0.067971  -24.148258  12.447815  -3.050035  -12.979374  7.058344  13.867235  8.030959  2.529829  -0.351756  -2.195044  -1.278493  -0.152925  -5.996997  -3.505191  -0.301807  -5.996997  -3.505191  -0.301806  -18.226693  -12.58432  4.614896  -39.023131  41.921838  16.106133  -6.2446  -25.948118  58.454507  104.665862  22.31607  20.870654  -16.71659  -2.808339  11.238225  51.613953  10.833156  60.303724  2.244582  -5.810871  -95.292875  78.475854  -7.145735  10.555192  -11.172838  -3.058441  -25.584671  -8.523653  -1.830168  -19.247499  
0.0  89.887642  0.0  -1.036681  3.405392  -95.065866  3.687167  -11.68561  4.944075  -4.827612  -0.700628  8.019021  0.588673  0.159129  0.09606  -24.231782  12.617825  -2.353072  -13.372485  7.116482  13.37411  7.936632  2.505574  -0.350504  -2.263417  -1.21527  -0.189893  -6.182069  -3.336227  -0.405103  -6.182069  -3.336227  -0.405103  -19.318157  -11.337  4.776532  -41.010847  41.994017  15.3799  -6.384155  -26.105623  57.933742  106.072182  22.839903  21.213924  -16.327429  -3.518616  11.474145  51.570093  11.070166  59.991836  2.521847  -6.637425  -95.118587  78.040582  -6.916129  10.018716  -11.593541  -2.759595  -25.159158  -8.825038  -1.595827  -18.926174  
0.0  89.887642  0.0  -1.158815  3.492199  -95.382368  2.876292  -11.523162  5.367489  -4.42363  -0.928633  7.906875  0.594985  0.024971  0.226476  -23.829395  12.686195  -1.817846  -13.656419  7.131291  13.18791  7.838343  2.455846  -0.323885  -2.261339  -1.22473  -0.178541  -6.176965  -3.360989  -0.373302  -6.176965  -3.360989  -0.373302  -20.256868  -10.272825  5.025035  -42.919577  41.819692  14.15536  -5.97898  -26.268193  57.619358  106.910718  23.240068  21.218221  -16.34887  -3.61355  11.44566  51.438936  11.125694  59.577856  3.061235  -7.838106  -95.118564  77.74863  -6.467037  9.704625  -11.905978  -2.399755  -25.11225  -9.04509  -1.313288  -18.886727  
